<svg width="15" height="74" viewBox="0 0 15 74" fill="none" xmlns="http://www.w3.org/2000/svg">
<path opacity="0.5" d="M7.44863 49.8853C4.67535 49.8853 2.40662 47.6765 2.33239 44.9042L1.29925 6.31623C1.20659 2.85556 3.98672 0 7.44863 0C10.9105 0 13.6907 2.85556 13.598 6.31623L12.5649 44.9042C12.4906 47.6765 10.2219 49.8853 7.44863 49.8853ZM7.5 58.993C9.76027 58.993 11.5753 59.7175 12.9452 61.1664C14.3151 62.5464 15 64.3748 15 66.6517C15 68.8597 14.2808 70.6536 12.8425 72.0336C11.4726 73.3445 9.69178 74 7.5 74C5.23973 74 3.42466 73.3445 2.05479 72.0336C0.684932 70.7226 0 68.9287 0 66.6517C0 64.3748 0.684932 62.5464 2.05479 61.1664C3.42466 59.7175 5.23973 58.993 7.5 58.993Z" fill="#FF5458"/>
</svg>
