<svg width="117" height="8" viewBox="0 0 117 8" fill="none" xmlns="http://www.w3.org/2000/svg">
<path d="M1 3.5L0.5 3.5L0.5 4.5L1 4.5L1 3.5ZM116.354 4.35355C116.549 4.15829 116.549 3.84171 116.354 3.64645L113.172 0.464467C112.976 0.269205 112.66 0.269205 112.464 0.464467C112.269 0.65973 112.269 0.976312 112.464 1.17157L115.293 4L112.464 6.82843C112.269 7.02369 112.269 7.34027 112.464 7.53554C112.66 7.7308 112.976 7.7308 113.172 7.53554L116.354 4.35355ZM1 4.5L116 4.5L116 3.5L1 3.5L1 4.5Z" fill="#FF5458"/>
</svg>
