<svg width="100" height="40" viewBox="0 0 100 40" fill="none" xmlns="http://www.w3.org/2000/svg">
<rect y="1" width="10" height="10" rx="1" fill="#FF5458"/>
<rect x="90" y="29" width="10" height="10" rx="1" fill="#66B4AB"/>
<rect x="26" y="15" width="10" height="10" rx="1" fill="#E3A36F"/>
<path d="M21.992 1.504V10H20.252V3.052H16.64V10H14.9V1.504H21.992ZM27.6585 1.504C28.1705 1.504 28.6345 1.56 29.0505 1.672C29.4665 1.776 29.8185 1.948 30.1065 2.188C30.4025 2.42 30.6265 2.728 30.7785 3.112C30.9385 3.488 31.0145 3.952 31.0065 4.504C30.9985 4.984 30.9145 5.412 30.7545 5.788C30.5945 6.156 30.3705 6.468 30.0825 6.724C29.8025 6.972 29.4625 7.164 29.0625 7.3C28.6705 7.428 28.2425 7.492 27.7785 7.492H26.1345V10H24.3945V1.504H27.6585ZM27.6825 5.956C27.8985 5.956 28.1025 5.928 28.2945 5.872C28.4865 5.816 28.6545 5.728 28.7985 5.608C28.9425 5.488 29.0585 5.34 29.1465 5.164C29.2345 4.988 29.2825 4.78 29.2905 4.54C29.3065 3.996 29.1625 3.612 28.8585 3.388C28.5545 3.164 28.1585 3.052 27.6705 3.052H26.1345V5.956H27.6825ZM33.7978 8.38L33.1858 10H31.2898L34.5778 1.504H36.5458L39.7858 10H37.8778L37.2898 8.38H33.7978ZM34.3018 6.844H36.7738L35.5498 3.352L34.3018 6.844ZM41.2739 10V1.504H45.0419C45.4339 1.504 45.7939 1.544 46.1219 1.624C46.4579 1.704 46.7499 1.848 46.9979 2.056C47.1979 2.216 47.3659 2.428 47.5019 2.692C47.6459 2.948 47.7179 3.26 47.7179 3.628C47.7259 4.02 47.6539 4.368 47.5019 4.672C47.3579 4.976 47.1099 5.232 46.7579 5.44C47.0059 5.512 47.2179 5.62 47.3939 5.764C47.5699 5.908 47.7099 6.076 47.8139 6.268C47.9259 6.46 48.0059 6.668 48.0539 6.892C48.1019 7.116 48.1219 7.348 48.1139 7.588C48.0979 7.972 47.9939 8.328 47.8019 8.656C47.6179 8.976 47.3739 9.236 47.0699 9.436C46.7099 9.684 46.3139 9.84 45.8819 9.904C45.4499 9.968 45.0219 10 44.5979 10H41.2739ZM44.5499 4.948C44.7259 4.948 44.9019 4.94 45.0779 4.924C45.2539 4.9 45.4179 4.844 45.5699 4.756C45.6979 4.676 45.8059 4.568 45.8939 4.432C45.9819 4.296 46.0299 4.136 46.0379 3.952C46.0459 3.76 46.0139 3.604 45.9419 3.484C45.8699 3.364 45.7819 3.272 45.6779 3.208C45.5499 3.128 45.4019 3.084 45.2339 3.076C45.0659 3.06 44.8939 3.052 44.7179 3.052H43.0139V4.948H44.5499ZM43.0139 8.464H44.5979C44.8299 8.464 45.0739 8.452 45.3299 8.428C45.5939 8.396 45.8179 8.312 46.0019 8.176C46.1139 8.088 46.2059 7.98 46.2779 7.852C46.3499 7.716 46.3859 7.548 46.3859 7.348C46.3859 7.164 46.3459 7.008 46.2659 6.88C46.1859 6.752 46.0859 6.656 45.9659 6.592C45.8299 6.504 45.6739 6.452 45.4979 6.436C45.3299 6.42 45.1539 6.412 44.9699 6.412L43.0139 6.424V8.464ZM53.8096 1.396C54.4576 1.396 55.0416 1.5 55.5616 1.708C56.0816 1.916 56.5216 2.212 56.8816 2.596C57.2416 2.972 57.5176 3.424 57.7096 3.952C57.9016 4.48 57.9976 5.064 57.9976 5.704C57.9976 6.328 57.9016 6.908 57.7096 7.444C57.5176 7.98 57.2416 8.444 56.8816 8.836C56.5216 9.228 56.0776 9.536 55.5496 9.76C55.0296 9.976 54.4376 10.08 53.7736 10.072C53.1096 10.072 52.5176 9.964 51.9976 9.748C51.4856 9.524 51.0496 9.22 50.6896 8.836C50.3376 8.452 50.0656 7.996 49.8736 7.468C49.6896 6.94 49.5976 6.364 49.5976 5.74C49.5976 5.1 49.6936 4.516 49.8856 3.988C50.0856 3.452 50.3656 2.992 50.7256 2.608C51.0936 2.224 51.5376 1.928 52.0576 1.72C52.5776 1.504 53.1616 1.396 53.8096 1.396ZM51.3856 5.716C51.3856 6.084 51.4336 6.436 51.5296 6.772C51.6336 7.1 51.7816 7.392 51.9736 7.648C52.1736 7.904 52.4256 8.112 52.7296 8.272C53.0336 8.424 53.3896 8.504 53.7976 8.512C54.1896 8.52 54.5376 8.452 54.8416 8.308C55.1456 8.156 55.3976 7.952 55.5976 7.696C55.7976 7.432 55.9496 7.132 56.0536 6.796C56.1576 6.452 56.2096 6.096 56.2096 5.728C56.2096 5.368 56.1576 5.02 56.0536 4.684C55.9576 4.348 55.8096 4.052 55.6096 3.796C55.4176 3.532 55.1696 3.324 54.8656 3.172C54.5616 3.02 54.2056 2.944 53.7976 2.944C53.3976 2.944 53.0456 3.02 52.7416 3.172C52.4376 3.324 52.1856 3.528 51.9856 3.784C51.7856 4.04 51.6336 4.336 51.5296 4.672C51.4336 5 51.3856 5.348 51.3856 5.716Z" fill="#0F0F0F"/>
<path d="M42.64 19.032H46.228V15.504H47.968V24H46.228V20.58H42.64V24H40.9V15.504H42.64V19.032ZM51.9791 22.38L51.3671 24H49.4711L52.7591 15.504H54.7271L57.9671 24H56.0591L55.4711 22.38H51.9791ZM52.4831 20.844H54.9551L53.7311 17.352L52.4831 20.844Z" fill="#0F0F0F"/>
<path d="M38.9411 35.408C38.9891 35.624 39.0731 35.804 39.1931 35.948C39.3211 36.084 39.4691 36.192 39.6371 36.272C39.8131 36.352 40.0011 36.408 40.2011 36.44C40.4011 36.472 40.5931 36.492 40.7771 36.5C40.9771 36.508 41.1891 36.5 41.4131 36.476C41.6371 36.452 41.8411 36.4 42.0251 36.32C42.2171 36.24 42.3731 36.124 42.4931 35.972C42.6131 35.812 42.6731 35.604 42.6731 35.348C42.6731 35.124 42.6171 34.948 42.5051 34.82C42.4011 34.692 42.2651 34.596 42.0971 34.532C41.9291 34.468 41.7451 34.428 41.5451 34.412C41.3531 34.396 41.1731 34.388 41.0051 34.388H39.8891V32.96H40.6451C40.8291 32.96 41.0211 32.948 41.2211 32.924C41.4211 32.9 41.6051 32.852 41.7731 32.78C41.9411 32.708 42.0771 32.604 42.1811 32.468C42.2931 32.332 42.3531 32.152 42.3611 31.928C42.3611 31.72 42.3091 31.552 42.2051 31.424C42.1091 31.296 41.9811 31.196 41.8211 31.124C41.6611 31.052 41.4851 31.004 41.2931 30.98C41.1091 30.956 40.9331 30.944 40.7651 30.944C40.5571 30.944 40.3571 30.964 40.1651 31.004C39.9731 31.044 39.8011 31.104 39.6491 31.184C39.4971 31.264 39.3731 31.368 39.2771 31.496C39.1811 31.624 39.1251 31.776 39.1091 31.952H37.4411C37.4571 31.464 37.5611 31.064 37.7531 30.752C37.9531 30.44 38.1931 30.188 38.4731 29.996C38.7771 29.788 39.1491 29.636 39.5891 29.54C40.0371 29.444 40.5011 29.4 40.9811 29.408C41.3491 29.408 41.7171 29.444 42.0851 29.516C42.4531 29.588 42.7851 29.708 43.0811 29.876C43.3771 30.044 43.6131 30.272 43.7891 30.56C43.9731 30.848 44.0651 31.208 44.0651 31.64C44.0651 31.984 43.9771 32.324 43.8011 32.66C43.6331 32.988 43.3811 33.244 43.0451 33.428C43.5331 33.588 43.8811 33.856 44.0891 34.232C44.3051 34.608 44.4051 35.044 44.3891 35.54C44.3731 36.036 44.2531 36.452 44.0291 36.788C43.8131 37.116 43.5331 37.38 43.1891 37.58C42.8451 37.772 42.4571 37.908 42.0251 37.988C41.6011 38.06 41.1731 38.088 40.7411 38.072C40.2851 38.056 39.8571 38 39.4571 37.904C39.0571 37.808 38.7011 37.66 38.3891 37.46C38.0771 37.252 37.8211 36.984 37.6211 36.656C37.4291 36.32 37.3131 35.904 37.2731 35.408H38.9411ZM52.4181 29.504V31.052H48.0861V33.032H51.8661V34.58H48.0861V36.464H52.4181V38H46.3461V29.504H52.4181ZM56.2483 29.504L58.7923 33.5L61.3003 29.504H63.1603V38H61.4203V32.132L59.1523 35.804H58.3723L56.0803 32.132V38H54.3523V29.504H56.2483ZM67.9098 31.052C67.8938 31.58 67.8858 32.116 67.8858 32.66C67.8858 33.196 67.8738 33.728 67.8498 34.256C67.8418 34.456 67.8338 34.668 67.8258 34.892C67.8178 35.116 67.7978 35.344 67.7658 35.576C67.7418 35.8 67.6978 36.024 67.6338 36.248C67.5778 36.472 67.4978 36.684 67.3938 36.884C67.2738 37.1 67.1258 37.28 66.9498 37.424C66.7818 37.568 66.5938 37.684 66.3858 37.772C66.1858 37.86 65.9698 37.924 65.7378 37.964C65.5058 37.996 65.2698 38.012 65.0298 38.012H64.7778V36.476H64.9338C65.0858 36.476 65.2218 36.448 65.3418 36.392C65.4618 36.336 65.5658 36.264 65.6538 36.176C65.7418 36.088 65.8138 35.992 65.8698 35.888C65.9258 35.776 65.9658 35.668 65.9898 35.564C66.0378 35.38 66.0738 35.172 66.0978 34.94C66.1218 34.7 66.1378 34.456 66.1458 34.208C66.1538 33.952 66.1618 33.704 66.1698 33.464C66.1778 33.224 66.1858 33.008 66.1938 32.816C66.2098 32.288 66.2138 31.76 66.2058 31.232C66.2058 30.696 66.2138 30.12 66.2298 29.504H72.2418V38H70.5018V31.052H67.9098ZM76.3822 33.032H77.4262C77.4902 32.504 77.6222 32.02 77.8222 31.58C78.0302 31.132 78.3022 30.748 78.6382 30.428C78.9822 30.108 79.3862 29.86 79.8502 29.684C80.3222 29.5 80.8582 29.408 81.4582 29.408C82.1222 29.408 82.7062 29.516 83.2102 29.732C83.7222 29.94 84.1502 30.236 84.4942 30.62C84.8462 30.996 85.1102 31.448 85.2862 31.976C85.4702 32.504 85.5622 33.084 85.5622 33.716C85.5622 34.34 85.4702 34.92 85.2862 35.456C85.1022 35.992 84.8342 36.456 84.4822 36.848C84.1302 37.232 83.6982 37.536 83.1862 37.76C82.6742 37.976 82.0862 38.08 81.4222 38.072C80.8382 38.072 80.3142 37.988 79.8502 37.82C79.3942 37.644 78.9982 37.404 78.6622 37.1C78.3262 36.788 78.0542 36.42 77.8462 35.996C77.6462 35.564 77.5102 35.092 77.4382 34.58H76.3822V38H74.6422V29.504H76.3822V33.032ZM79.1542 33.728C79.1542 34.088 79.1942 34.436 79.2742 34.772C79.3622 35.108 79.4982 35.408 79.6822 35.672C79.8662 35.928 80.1022 36.136 80.3902 36.296C80.6862 36.448 81.0382 36.524 81.4462 36.524C81.8462 36.524 82.1902 36.448 82.4782 36.296C82.7742 36.136 83.0182 35.928 83.2102 35.672C83.4022 35.416 83.5422 35.12 83.6302 34.784C83.7262 34.448 83.7742 34.1 83.7742 33.74C83.7742 33.388 83.7302 33.044 83.6422 32.708C83.5542 32.372 83.4142 32.076 83.2222 31.82C83.0302 31.556 82.7862 31.348 82.4902 31.196C82.2022 31.036 81.8542 30.956 81.4462 30.956C81.0382 30.956 80.6902 31.036 80.4022 31.196C80.1142 31.348 79.8782 31.552 79.6942 31.808C79.5102 32.064 79.3742 32.36 79.2862 32.696C79.1982 33.024 79.1542 33.368 79.1542 33.728Z" fill="#0F0F0F"/>
</svg>
