<?xml version="1.0" encoding="utf-8"?>
<!-- Generator: Adobe Illustrator 27.0.0, SVG Export Plug-In . SVG Version: 6.00 Build 0)  -->
<svg version="1.1" id="_Слой_1" xmlns="http://www.w3.org/2000/svg" xmlns:xlink="http://www.w3.org/1999/xlink" x="0px"
	 y="0px" viewBox="0 0 101.2 38" style="enable-background:new 0 0 101.2 38;" xml:space="preserve">
<style type="text/css">
	.st0{enable-background:new    ;}
	.st1{fill:#1D1D1B;}
	.st2{fill:#FF5458;}
	.st3{fill:#66B4AB;}
</style>
<g class="st0">
	<path class="st1" d="M14.6,0.5h1.7v2.1c0,0.7,0,1.1,0.1,1.3c0,0.2,0.2,0.4,0.4,0.6s0.6,0.2,1.1,0.2c0.4,0,0.7,0,1-0.1
		s0.5-0.2,0.8-0.4V0.5h1.7v8.6h-1.7V5.6c-0.4,0.2-0.7,0.3-1,0.4s-0.7,0.1-1,0.1c-0.9,0-1.6-0.2-2.1-0.6s-0.9-1.1-0.9-2.1V0.5z"/>
	<path class="st1" d="M23.4,9.1V0.5h6.4v1.5h-4.6v1.9h4.3v1.4h-4.3v2.3h4.8v1.4H23.4z"/>
	<path class="st1" d="M31.6,9.1V0.5h2.8c1.1,0,1.7,0,2.1,0.1C37,0.7,37.4,1,37.7,1.5s0.5,1,0.5,1.7c0,0.5-0.1,1-0.3,1.3
		s-0.4,0.6-0.7,0.8s-0.6,0.3-0.9,0.4c-0.4,0.1-1,0.1-1.8,0.1h-1.1v3.2H31.6z M33.4,1.9v2.4h0.9c0.7,0,1.1,0,1.4-0.1s0.4-0.2,0.5-0.4
		c0.1-0.2,0.2-0.4,0.2-0.7c0-0.3-0.1-0.6-0.3-0.8S35.8,2,35.5,2c-0.2,0-0.6-0.1-1.2-0.1H33.4z"/>
	<path class="st1" d="M40,0.5h5.8v1.4h-4.1v7.1H40V0.5z"/>
	<path class="st1" d="M46.9,9.1V0.5h6.4v1.5h-4.6v1.9H53v1.4h-4.3v2.3h4.8v1.4H46.9z"/>
</g>
<g class="st0">
	<path class="st1" d="M60.6,31l2.7,0c-0.1-0.6-0.3-1.2-0.6-1.6c-0.4-0.4-0.8-0.6-1.5-0.6c-0.5,0-0.9,0.1-1.2,0.4
		c-0.3,0.3-0.5,0.6-0.7,1l-1.7-0.4c0.2-0.8,0.6-1.4,1.2-1.8s1.4-0.7,2.3-0.7c1.2,0,2.2,0.4,2.9,1.3c0.7,0.8,1,1.9,1,3.3
		c0,0.9-0.2,1.7-0.5,2.3c-0.3,0.6-0.8,1.2-1.4,1.5c-0.6,0.4-1.3,0.5-2.1,0.5c-2,0-3.2-0.9-3.6-2.8l1.7-0.5c0.1,0.6,0.3,1.1,0.7,1.4
		c0.4,0.3,0.8,0.5,1.3,0.5c0.5,0,0.9-0.2,1.3-0.5c0.4-0.4,0.6-0.9,0.7-1.7l-2.7,0L60.6,31z"/>
	<path class="st1" d="M66.6,36.1l0.1-8.6l2.8,0c1.1,0,1.7,0.1,2.1,0.1c0.5,0.1,0.9,0.4,1.2,0.9c0.3,0.4,0.5,1,0.5,1.7
		c0,0.5-0.1,1-0.3,1.3c-0.2,0.4-0.4,0.6-0.7,0.8s-0.6,0.3-0.9,0.4c-0.4,0.1-1,0.1-1.8,0.1l-1.1,0l0,3.2L66.6,36.1z M68.4,29l0,2.4
		l0.9,0c0.7,0,1.1,0,1.4-0.1c0.2-0.1,0.4-0.2,0.5-0.4c0.1-0.2,0.2-0.4,0.2-0.7c0-0.3-0.1-0.6-0.3-0.8s-0.4-0.3-0.7-0.4
		c-0.2,0-0.6-0.1-1.2-0.1L68.4,29z"/>
	<path class="st1" d="M74.9,27.6l5.8,0.1l0,1.4l-4.1,0l-0.1,7.1l-1.7,0L74.9,27.6z"/>
	<path class="st1" d="M81.7,36.2l0.1-8.6l6.4,0.1l0,1.5l-4.6,0l0,1.9l4.3,0l0,1.4l-4.3,0l0,2.3l4.8,0l0,1.4L81.7,36.2z"/>
</g>
<path class="st2" d="M1,0h8c0.6,0,1,0.4,1,1v8c0,0.6-0.4,1-1,1H1c-0.6,0-1-0.4-1-1V1C0,0.4,0.4,0,1,0z"/>
<path class="st3" d="M92.2,27h8c0.6,0,1,0.4,1,1v8c0,0.6-0.4,1-1,1h-8c-0.6,0-1-0.4-1-1v-8C91.2,27.4,91.6,27,92.2,27z"/>
<g class="st0">
	<path class="st1" d="M0.4,22.8l2.9-4.5l-2.7-4.1h2L4.4,17l1.7-2.8h2l-2.7,4.2l2.9,4.4H6.3l-1.9-3l-1.9,3H0.4z"/>
	<path class="st1" d="M17.1,22.8h-1.9l-0.8-2h-3.4l-0.7,2H8.5l3.3-8.6h1.8L17.1,22.8z M13.9,19.5l-1.2-3.2l-1.2,3.2H13.9z"/>
	<path class="st1" d="M18.2,22.8v-8.6h2.6l1.6,5.9l1.5-5.9h2.6v8.6h-1.6v-6.8l-1.7,6.8h-1.7l-1.7-6.8v6.8H18.2z"/>
	<path class="st1" d="M36,22.8h-1.9l-0.8-2H30l-0.7,2h-1.8l3.3-8.6h1.8L36,22.8z M32.9,19.5l-1.2-3.2l-1.2,3.2H32.9z"/>
</g>
<g class="st0">
	<path class="st1" d="M45.6,22.8h-1.9l-0.8-2h-3.4l-0.7,2H37l3.3-8.6h1.8L45.6,22.8z M42.5,19.5l-1.2-3.2l-1.2,3.2H42.5z"/>
</g>
<g class="st0">
	<path class="st1" d="M46.5,22.8v-8.6h2.8c1.1,0,1.7,0,2.1,0.1c0.5,0.1,0.9,0.4,1.2,0.8s0.5,1,0.5,1.7c0,0.5-0.1,1-0.3,1.3
		s-0.4,0.6-0.7,0.8s-0.6,0.3-0.9,0.4c-0.4,0.1-1,0.1-1.8,0.1h-1.1v3.2H46.5z M48.2,15.7v2.4h0.9c0.7,0,1.1,0,1.4-0.1
		s0.4-0.2,0.5-0.4s0.2-0.4,0.2-0.7c0-0.3-0.1-0.6-0.3-0.8c-0.2-0.2-0.4-0.3-0.7-0.4c-0.2,0-0.6-0.1-1.2-0.1H48.2z"/>
</g>
<g class="st0">
	<path class="st1" d="M54.3,14.3h1.7v3.4h2.3c0.6,0,1.1,0.1,1.6,0.2s0.8,0.5,1.1,0.9s0.4,0.9,0.4,1.5c0,0.6-0.2,1.1-0.5,1.5
		s-0.6,0.7-1,0.8s-0.9,0.2-1.6,0.2h-4.1V14.3z M56.1,21.4h1.7c0.5,0,0.9,0,1.1-0.1s0.4-0.2,0.6-0.4s0.2-0.4,0.2-0.7
		c0-0.4-0.1-0.7-0.4-0.9s-0.8-0.3-1.5-0.3h-1.8V21.4z M62.5,14.3h1.7v8.6h-1.7V14.3z"/>
	<path class="st1" d="M66.2,14.3h1.7v7.1h2.5v-7.1h1.7v7.1h2.6v-7.1h1.7l0,8.6l-10.3,0V14.3z"/>
</g>
<g class="st0">
	<path class="st1" d="M79,22.8v-7.1h-2.5v-1.5h6.8v1.5h-2.5v7.1H79z"/>
</g>
<g class="st0">
	<path class="st1" d="M83.9,14.3h1.7v3.4h2.3c0.6,0,1.1,0.1,1.6,0.2s0.8,0.5,1.1,0.9s0.4,0.9,0.4,1.5c0,0.6-0.2,1.1-0.5,1.5
		s-0.6,0.7-1,0.8s-0.9,0.2-1.6,0.2h-4.1V14.3z M85.6,21.4h1.7c0.5,0,0.9,0,1.1-0.1s0.4-0.2,0.6-0.4s0.2-0.4,0.2-0.7
		c0-0.4-0.1-0.7-0.4-0.9s-0.8-0.3-1.5-0.3h-1.8V21.4z M92,14.3h1.7v8.6H92V14.3z"/>
</g>
<g class="st0">
	<path class="st1" d="M94.6,22.8v-8.6h2.8c1.1,0,1.7,0,2.1,0.1c0.5,0.1,0.9,0.4,1.2,0.8s0.5,1,0.5,1.7c0,0.5-0.1,1-0.3,1.3
		s-0.4,0.6-0.7,0.8s-0.6,0.3-0.9,0.4c-0.4,0.1-1,0.1-1.8,0.1h-1.1v3.2H94.6z M96.3,15.7v2.4h0.9c0.7,0,1.1,0,1.4-0.1
		s0.4-0.2,0.5-0.4s0.2-0.4,0.2-0.7c0-0.3-0.1-0.6-0.3-0.8c-0.2-0.2-0.4-0.3-0.7-0.4c-0.2,0-0.6-0.1-1.2-0.1H96.3z"/>
</g>
</svg>
