<svg width="20" height="14" viewBox="0 0 20 14" fill="none" xmlns="http://www.w3.org/2000/svg">
<path d="M5.41665 13.6667C4.15276 13.6667 3.07304 13.2292 2.17748 12.3542C1.28137 11.4792 0.833313 10.4097 0.833313 9.14584C0.833313 8.06251 1.1597 7.09723 1.81248 6.25001C2.46526 5.40279 3.31942 4.86112 4.37498 4.62501C4.69442 3.50001 5.28831 2.55557 6.15665 1.79168C7.02442 1.02779 8.02776 0.56251 9.16665 0.395844V7.12501L8.41665 6.39584C8.26387 6.24307 8.07304 6.16668 7.84415 6.16668C7.6147 6.16668 7.41665 6.25001 7.24998 6.41668C7.0972 6.56946 7.02081 6.7639 7.02081 7.00001C7.02081 7.23612 7.0972 7.43057 7.24998 7.58334L9.41665 9.75001C9.58331 9.91668 9.77776 10 9.99998 10C10.2222 10 10.4166 9.91668 10.5833 9.75001L12.75 7.58334C12.9028 7.43057 12.9828 7.23946 12.99 7.01001C12.9966 6.78112 12.9166 6.58334 12.75 6.41668C12.5972 6.2639 12.4064 6.1839 12.1775 6.17668C11.948 6.17001 11.75 6.24307 11.5833 6.39584L10.8333 7.12501V0.395844C12.2639 0.590288 13.455 1.23251 14.4066 2.32251C15.3578 3.41307 15.8333 4.69446 15.8333 6.16668C16.7916 6.27779 17.5869 6.69084 18.2191 7.40584C18.8508 8.1214 19.1666 8.95834 19.1666 9.91668C19.1666 10.9583 18.8022 11.8439 18.0733 12.5733C17.3439 13.3022 16.4583 13.6667 15.4166 13.6667H5.41665Z" />
</svg>
